<?xml version="1.0" standalone="no"?>
<!DOCTYPE svg PUBLIC "-//W3C//DTD SVG 20010904//EN"
 "http://www.w3.org/TR/2001/REC-SVG-20010904/DTD/svg10.dtd">
<svg version="1.0" xmlns="http://www.w3.org/2000/svg"
 width="200.000000pt" height="200.000000pt" viewBox="0 0 200.000000 200.000000"
 preserveAspectRatio="xMidYMid meet">
<metadata>
Created by potrace 1.11, written by Peter Selinger 2001-2013
</metadata>
<g transform="translate(0.000000,200.000000) scale(0.100000,-0.100000)"
fill="#000000" stroke="none">
<path d="M875 1893 c-11 -2 -56 -13 -99 -24 -319 -80 -572 -339 -653 -666 -23
-93 -23 -313 0 -406 78 -314 309 -562 612 -656 102 -32 136 -36 285 -35 115 1
148 5 223 28 137 41 262 110 371 206 58 50 146 172 191 263 71 144 88 224 88
402 0 133 -3 160 -27 238 -101 335 -360 572 -701 643 -36 7 -262 13 -290 7z
m330 -203 c230 -72 407 -246 482 -475 23 -70 26 -96 27 -215 0 -120 -3 -144
-27 -215 -80 -238 -247 -401 -487 -476 -107 -34 -292 -34 -400 0 -206 64 -356
191 -448 381 -52 106 -67 179 -66 320 0 113 3 133 31 213 17 48 46 112 64 143
48 80 148 184 223 233 74 48 196 99 259 107 23 4 44 8 46 10 2 2 54 2 115 0
77 -3 133 -11 181 -26z"/>
<path d="M930 1425 c-165 -43 -259 -188 -261 -401 -1 -112 20 -191 71 -265 71
-105 159 -149 292 -145 155 5 280 108 296 242 5 52 -2 57 -90 59 -74 2 -82 -3
-93 -53 -9 -43 -60 -81 -116 -88 -110 -12 -177 102 -165 279 9 139 64 217 151
217 66 0 121 -47 131 -113 4 -20 11 -40 16 -43 14 -9 124 -11 147 -2 46 17 16
146 -50 222 -75 85 -210 122 -329 91z"/>
</g>
</svg>
